<?xml version="1.0" encoding="UTF-8" standalone="no"?>
<!-- Created with Inkscape (http://www.inkscape.org/) -->

<svg
   width="1000"
   height="435.72958"
   viewBox="0 0 264.58333 115.28678"
   version="1.1"
   id="svg1"
   sodipodi:docname="Sonic Advance.svg"
   inkscape:version="1.3 (0e150ed6c4, 2023-07-21)"
   xmlns:inkscape="http://www.inkscape.org/namespaces/inkscape"
   xmlns:sodipodi="http://sodipodi.sourceforge.net/DTD/sodipodi-0.dtd"
   xmlns="http://www.w3.org/2000/svg"
   xmlns:svg="http://www.w3.org/2000/svg">
  <sodipodi:namedview
     id="namedview1"
     pagecolor="#ffffff"
     bordercolor="#000000"
     borderopacity="0.25"
     inkscape:showpageshadow="2"
     inkscape:pageopacity="0.0"
     inkscape:pagecheckerboard="0"
     inkscape:deskcolor="#d1d1d1"
     inkscape:document-units="mm"
     inkscape:zoom="0.74742565"
     inkscape:cx="996.75466"
     inkscape:cy="352.54343"
     inkscape:window-width="1920"
     inkscape:window-height="1017"
     inkscape:window-x="-8"
     inkscape:window-y="-8"
     inkscape:window-maximized="1"
     inkscape:current-layer="layer1" />
  <defs
     id="defs1">
    <clipPath
       clipPathUnits="userSpaceOnUse"
       id="clipPath604">
      <path
         d="m 3443.8,691.316 c 0,0.122 0.04,0.239 0.04,0.356 0,79.726 -46.72,286.308 -766.72,246.308 C 1802.07,889.363 705.836,691.672 705.836,691.672 c 0,0 0.039,-0.234 0.039,-0.356 H 3443.8"
         id="path602" />
    </clipPath>
    <linearGradient
       x1="0"
       y1="0"
       x2="1"
       y2="0"
       gradientUnits="userSpaceOnUse"
       gradientTransform="matrix(2738,0,0,-326.66,705.85,997.979)"
       spreadMethod="pad"
       id="linearGradient610">
      <stop
         style="stop-opacity:1;stop-color:#19b5f1"
         offset="0"
         id="stop606" />
      <stop
         style="stop-opacity:1;stop-color:#2a3e91"
         offset="1"
         id="stop608" />
    </linearGradient>
    <clipPath
       clipPathUnits="userSpaceOnUse"
       id="clipPath644">
      <path
         d="m 977.008,1068.77 29.962,-61.21 h -60.001 z m -72.031,-144.981 20.41,40.938 h 102.383 l 20.78,-40.938 h 103.59 L 1036.97,1115.24 H 916.969 L 801.402,923.789 h 103.575"
         id="path642" />
    </clipPath>
    <linearGradient
       x1="0"
       y1="0"
       x2="1"
       y2="0"
       gradientUnits="userSpaceOnUse"
       gradientTransform="matrix(0,-188.582,-376.203,0,1164.87,1119.42)"
       spreadMethod="pad"
       id="linearGradient650">
      <stop
         style="stop-opacity:1;stop-color:#ed1c24"
         offset="0"
         id="stop646" />
      <stop
         style="stop-opacity:1;stop-color:#b6242a"
         offset="1"
         id="stop648" />
    </linearGradient>
    <clipPath
       clipPathUnits="userSpaceOnUse"
       id="clipPath660">
      <path
         d="m 1288.79,1065.49 h 87.44 c 10.9,0 18.38,-0.63 22.36,-1.92 6.11,-2.08 9.32,-6.71 9.59,-13.93 v -57.257 c 0,-6.485 -1.37,-10.735 -4,-12.793 -3.21,-3.352 -12.64,-5.156 -28.34,-5.41 h -87.05 z m 121.77,-141.701 c 29.3,0 51.14,2.461 65.51,7.422 22.11,7.012 33.44,20.559 33.97,40.625 v 95.964 c -0.53,19.8 -11.86,33.17 -33.97,40.12 -14.37,4.88 -36.21,7.32 -65.51,7.32 H 1190.8 V 923.789 h 219.76"
         id="path658" />
    </clipPath>
    <linearGradient
       x1="0"
       y1="0"
       x2="1"
       y2="0"
       gradientUnits="userSpaceOnUse"
       gradientTransform="matrix(0,-188.582,-344.694,0,1522.76,1119.42)"
       spreadMethod="pad"
       id="linearGradient666">
      <stop
         style="stop-opacity:1;stop-color:#ed1c24"
         offset="0"
         id="stop662" />
      <stop
         style="stop-opacity:1;stop-color:#b6242a"
         offset="1"
         id="stop664" />
    </linearGradient>
    <clipPath
       clipPathUnits="userSpaceOnUse"
       id="clipPath676">
      <path
         d="M 1658.98,923.789 1546.6,1115.24 h 107.58 l 60.41,-133.697 60.37,133.697 h 106.77 L 1770.15,923.789 h -111.17"
         id="path674" />
    </clipPath>
    <linearGradient
       x1="0"
       y1="0"
       x2="1"
       y2="0"
       gradientUnits="userSpaceOnUse"
       gradientTransform="matrix(0,-188.582,-360.591,0,1894.46,1119.42)"
       spreadMethod="pad"
       id="linearGradient682">
      <stop
         style="stop-opacity:1;stop-color:#ed1c24"
         offset="0"
         id="stop678" />
      <stop
         style="stop-opacity:1;stop-color:#b6242a"
         offset="1"
         id="stop680" />
    </linearGradient>
    <clipPath
       clipPathUnits="userSpaceOnUse"
       id="clipPath692">
      <path
         d="m 2078.75,1068.77 30,-61.21 h -60 z m -72,-144.981 20.39,40.938 h 102.41 l 20.76,-40.938 H 2253.9 L 2138.73,1115.24 H 2018.75 L 1903.18,923.789 h 103.57"
         id="path690" />
    </clipPath>
    <linearGradient
       x1="0"
       y1="0"
       x2="1"
       y2="0"
       gradientUnits="userSpaceOnUse"
       gradientTransform="matrix(0,-188.582,-376.172,0,2266.62,1119.42)"
       spreadMethod="pad"
       id="linearGradient698">
      <stop
         style="stop-opacity:1;stop-color:#ed1c24"
         offset="0"
         id="stop694" />
      <stop
         style="stop-opacity:1;stop-color:#b6242a"
         offset="1"
         id="stop696" />
    </linearGradient>
    <clipPath
       clipPathUnits="userSpaceOnUse"
       id="clipPath708">
      <path
         d="m 2291.26,923.789 v 191.451 h 102.68 l 116.63,-104.63 v 104.63 h 96.66 V 923.789 H 2504.58 L 2387.94,1026.11 V 923.789 h -96.68"
         id="path706" />
    </clipPath>
    <linearGradient
       x1="0"
       y1="0"
       x2="1"
       y2="0"
       gradientUnits="userSpaceOnUse"
       gradientTransform="matrix(0,-188.582,-341.431,0,2619.96,1119.42)"
       spreadMethod="pad"
       id="linearGradient714">
      <stop
         style="stop-opacity:1;stop-color:#ed1c24"
         offset="0"
         id="stop710" />
      <stop
         style="stop-opacity:1;stop-color:#b6242a"
         offset="1"
         id="stop712" />
    </linearGradient>
    <clipPath
       clipPathUnits="userSpaceOnUse"
       id="clipPath724">
      <path
         d="m 2972.04,923.789 h -209.33 c -30.35,0 -52.56,2.461 -66.64,7.422 -21.57,6.75 -32.74,20.691 -33.54,41.797 v 95.032 c 0.51,19.97 11.43,33.26 32.74,39.92 14.08,4.85 36.55,7.28 67.44,7.28 h 210.62 v -49.11 h -163.4 c -18.69,-0.25 -30.57,-1.27 -35.62,-3.1 -7.21,-2.05 -10.94,-6.6 -11.21,-13.58 v -56.645 c 0.27,-9.067 3.59,-14.492 10.01,-16.289 3.74,-1.555 15.75,-2.336 36,-2.336 h 162.93 v -50.391"
         id="path722" />
    </clipPath>
    <linearGradient
       x1="0"
       y1="0"
       x2="1"
       y2="0"
       gradientUnits="userSpaceOnUse"
       gradientTransform="matrix(0,-188.582,-336.26,0,2986.06,1119.42)"
       spreadMethod="pad"
       id="linearGradient730">
      <stop
         style="stop-opacity:1;stop-color:#ed1c24"
         offset="0"
         id="stop726" />
      <stop
         style="stop-opacity:1;stop-color:#b6242a"
         offset="1"
         id="stop728" />
    </linearGradient>
    <clipPath
       clipPathUnits="userSpaceOnUse"
       id="clipPath740">
      <path
         d="m 3027.1,923.789 v 191.451 h 314.69 v -47.22 h -217.36 v -25.19 h 198.55 v -44.732 h -198.55 v -25.813 h 218.67 v -48.496 h -316"
         id="path738" />
    </clipPath>
    <linearGradient
       x1="0"
       y1="0"
       x2="1"
       y2="0"
       gradientUnits="userSpaceOnUse"
       gradientTransform="matrix(0,-188.582,-341.45,0,3355.82,1119.42)"
       spreadMethod="pad"
       id="linearGradient746">
      <stop
         style="stop-opacity:1;stop-color:#ed1c24"
         offset="0"
         id="stop742" />
      <stop
         style="stop-opacity:1;stop-color:#b6242a"
         offset="1"
         id="stop744" />
    </linearGradient>
    <clipPath
       clipPathUnits="userSpaceOnUse"
       id="clipPath760">
      <path
         d="m 3317.7,1266.32 c -19.33,65.76 -40.25,135.94 -64.31,207.25 -1.25,3.73 -4.45,6.44 -8.34,7.08 -3.89,0.65 -7.79,-0.92 -10.18,-4.04 -14.43,-18.88 -29.41,-34.65 -43.32,-45.63 -25.58,-20.13 -75.5,-27.83 -106.28,-6.71 -28.52,19.61 -30.22,46.52 -26.63,65.64 9.06,48.34 59.13,99.16 109.28,110.96 22.38,5.24 54.22,4.7 78.79,-27.8 2.46,-3.27 6.6,-4.82 10.61,-4 4,0.82 7.2,3.87 8.18,7.86 10.27,41.46 22.83,82.01 34.96,121.22 l 17.24,56.65 c 0.87,2.81 0.49,5.81 -0.97,8.35 -1.49,2.56 -3.95,4.34 -6.82,5 -71.3,16.53 -126.23,20.61 -195.93,14.5 -151.2,-13.21 -232.89,-120.59 -252.35,-230.96 -1.97,-11.21 -3.32,-22.46 -4.02,-33.63 -7.27,-116.17 54.8,-248.36 209.92,-281.78 63.99,-13.75 131.27,-2.03 190.65,8.3 l 50.76,8.19 c 3,0.48 5.79,2.26 7.42,4.86 1.64,2.57 2.21,5.74 1.34,8.69"
         id="path758" />
    </clipPath>
    <linearGradient
       x1="0"
       y1="0"
       x2="1"
       y2="0"
       gradientUnits="userSpaceOnUse"
       gradientTransform="matrix(4.916,-471.336,-491.884,-5.13,3328.44,1769.8)"
       spreadMethod="pad"
       id="linearGradient768">
      <stop
         style="stop-opacity:1;stop-color:#fff64c"
         offset="0"
         id="stop762" />
      <stop
         style="stop-opacity:1;stop-color:#fff64c"
         offset="0.05658597"
         id="stop764" />
      <stop
         style="stop-opacity:1;stop-color:#cb6e1d"
         offset="1"
         id="stop766" />
    </linearGradient>
    <clipPath
       clipPathUnits="userSpaceOnUse"
       id="clipPath778">
      <path
         d="m 2469.76,1774.86 c 0,5.87 -4.77,10.62 -10.63,10.62 h -162.91 c -5.24,0 -9.59,-3.77 -10.47,-8.77 -0.1,-0.6 -0.15,-1.23 -0.15,-1.85 0,0 0,-174.3 0,-237.74 -29.65,58.95 -121.74,242.11 -121.74,242.11 -1.79,3.59 -5.47,5.86 -9.47,5.86 l -214.8,0.39 c -2.82,0 -5.53,-1.12 -7.52,-3.1 -2.02,-2 -3.13,-4.69 -3.13,-7.52 v -173.81 l -0.25,-238.79 -0.14,-121.62 c -0.02,-2.84 1.11,-5.53 3.11,-7.53 1.99,-1.98 4.7,-3.12 7.52,-3.1 l 165.8,-0.15 c 2.83,0 5.52,1.09 7.52,3.1 1.56,1.54 2.59,3.53 2.96,5.67 0.1,0.6 0.16,1.23 0.16,1.85 0,0 0,146.52 0,207.05 43.44,-85.92 107.26,-210.3 108.02,-211.76 1.82,-3.55 5.45,-5.78 9.43,-5.78 l 226.06,-0.15 c 2.81,0 5.51,1.13 7.52,3.12 1.99,1.99 3.11,4.69 3.11,7.52 v 534.38"
         id="path776" />
    </clipPath>
    <linearGradient
       x1="0"
       y1="0"
       x2="1"
       y2="0"
       gradientUnits="userSpaceOnUse"
       gradientTransform="matrix(4.916,-471.336,-566.83,-5.912,2479.97,1760.95)"
       spreadMethod="pad"
       id="linearGradient786">
      <stop
         style="stop-opacity:1;stop-color:#fff64c"
         offset="0"
         id="stop780" />
      <stop
         style="stop-opacity:1;stop-color:#fff64c"
         offset="0.05658597"
         id="stop782" />
      <stop
         style="stop-opacity:1;stop-color:#cb6e1d"
         offset="1"
         id="stop784" />
    </linearGradient>
    <clipPath
       clipPathUnits="userSpaceOnUse"
       id="clipPath796">
      <path
         d="m 1565,1783.94 c -94.2,-6.84 -181.82,-57.62 -223.25,-129.38 -28.41,-49 -53.8,-136.79 -31.81,-222.79 16.29,-63.77 53.59,-116.47 107.89,-152.46 48.94,-32.45 110.6,-50.02 173.63,-49.47 115.65,0.97 247.74,66.77 282.13,211.58 1.19,4.98 2.23,10.06 3.14,15.25 9.13,51.76 5.22,112.62 -10.58,156.1 -43.36,119.7 -153.13,182.11 -301.15,171.17"
         id="path794" />
    </clipPath>
    <linearGradient
       x1="0"
       y1="0"
       x2="1"
       y2="0"
       gradientUnits="userSpaceOnUse"
       gradientTransform="matrix(4.916,-471.336,-617.749,-6.443,1893.29,1754.83)"
       spreadMethod="pad"
       id="linearGradient804">
      <stop
         style="stop-opacity:1;stop-color:#fff64c"
         offset="0"
         id="stop798" />
      <stop
         style="stop-opacity:1;stop-color:#fff64c"
         offset="0.05658597"
         id="stop800" />
      <stop
         style="stop-opacity:1;stop-color:#cb6e1d"
         offset="1"
         id="stop802" />
    </linearGradient>
    <clipPath
       clipPathUnits="userSpaceOnUse"
       id="clipPath814">
      <path
         d="m 2784.27,1774.86 c 0,5.85 -4.77,10.62 -10.64,10.62 h -191.2 c -2.81,0 -5.53,-1.12 -7.5,-3.1 -2.01,-2 -3.12,-4.71 -3.12,-7.52 v -534.85 c 0,-2.83 1.11,-5.53 3.12,-7.52 2,-1.99 4.69,-3.1 7.5,-3.13 l 191.21,0.03 c 5.86,0 10.63,4.74 10.63,10.62 v 534.85"
         id="path812" />
    </clipPath>
    <linearGradient
       x1="0"
       y1="0"
       x2="1"
       y2="0"
       gradientUnits="userSpaceOnUse"
       gradientTransform="matrix(4.916,-471.336,-238.103,-2.483,2794.44,1764.23)"
       spreadMethod="pad"
       id="linearGradient822">
      <stop
         style="stop-opacity:1;stop-color:#fff64c"
         offset="0"
         id="stop816" />
      <stop
         style="stop-opacity:1;stop-color:#fff64c"
         offset="0.05658597"
         id="stop818" />
      <stop
         style="stop-opacity:1;stop-color:#cb6e1d"
         offset="1"
         id="stop820" />
    </linearGradient>
    <clipPath
       clipPathUnits="userSpaceOnUse"
       id="clipPath832">
      <path
         d="m 1218.63,1546.82 c -24.9,18.15 -71.74,24.2 -113.07,29.54 -24.53,3.18 -61.35,7.96 -66.76,14.55 -1.58,12.52 -1.42,19.98 -0.68,24.22 0.45,2.5 1.08,3.94 1.62,4.76 8.6,13.22 106.39,11.04 180.47,0.06 5.37,-0.8 10.45,2.56 11.84,7.78 9.94,37.5 20.47,75.05 32.09,114.65 0.64,1.05 1.09,2.2 1.36,3.33 0.04,0.22 0.1,0.45 0.14,0.67 0.96,5.39 -2.54,10.74 -7.89,12.19 -0.18,0.04 -2.97,0.66 -2.97,0.66 -31.07,7.25 -53.55,11.9 -66.82,13.84 -48.3,7.13 -100,13.19 -150.8,9.5 v 0 c -65.64,-4.8 -138.336,-17.48 -179.976,-75.1 -24.121,-33.44 -35.137,-83.44 -30.215,-137.2 10.156,-115.57 90.234,-125.77 175.021,-136.57 l 18.36,-1.6 c 17.75,-1.17 33.06,-2.21 43.1,-12.21 3.64,-3.65 -0.49,-12.89 -3.4,-16.79 -13.1,-16.9 -111.753,-14.46 -173.862,-5.28 -5.313,0.77 -10.372,-2.52 -11.797,-7.71 -4.414,-15.98 -33.301,-126.43 -33.399,-129.83 -0.137,-5.33 3.672,-9.96 8.946,-10.8 l 2.714,-0.43 c 27.559,-4.39 45.762,-7.28 68.926,-9.12 l 3.399,-0.25 c 54.921,-4.28 111.683,-8.75 170.293,-4.41 58.65,4.35 110.94,30.64 143.44,72.18 31.77,40.62 43.4,92.52 33.59,150.06 -6.42,37.99 -24.49,68.05 -53.67,89.31"
         id="path830" />
    </clipPath>
    <linearGradient
       x1="0"
       y1="0"
       x2="1"
       y2="0"
       gradientUnits="userSpaceOnUse"
       gradientTransform="matrix(4.916,-471.336,-477.671,-4.982,1288.47,1748.52)"
       spreadMethod="pad"
       id="linearGradient840">
      <stop
         style="stop-opacity:1;stop-color:#fff64c"
         offset="0"
         id="stop834" />
      <stop
         style="stop-opacity:1;stop-color:#fff64c"
         offset="0.05658597"
         id="stop836" />
      <stop
         style="stop-opacity:1;stop-color:#cb6e1d"
         offset="1"
         id="stop838" />
    </linearGradient>
    <clipPath
       clipPathUnits="userSpaceOnUse"
       id="clipPath850">
      <path
         d="m 3069.29,1251.07 c -146.45,31.55 -205.08,156.47 -198.2,266.27 7.18,114.87 85.05,236.94 242.81,250.73 67.38,5.88 118.61,2.2 186.81,-13.25 -2.28,-7.5 -15.94,-52.31 -15.94,-52.31 -11.42,-36.96 -23.08,-75.21 -33.06,-114.37 -22.66,25.58 -53.64,35.64 -88.57,27.42 -55.28,-12.99 -110.45,-69.16 -120.51,-122.67 -6.23,-33.18 5.44,-61.82 32.85,-80.66 36.62,-25.15 93.63,-16.54 123.91,7.29 13.24,10.44 27.24,25.28 40.88,42.33 22.73,-67.9 43.02,-135.74 60.41,-194.9 -7.99,-1.29 -46.49,-7.5 -46.49,-7.5 -58.03,-10.09 -123.77,-21.54 -184.9,-8.38"
         id="path848" />
    </clipPath>
    <linearGradient
       x1="0"
       y1="0"
       x2="1"
       y2="0"
       gradientUnits="userSpaceOnUse"
       gradientTransform="matrix(0,537.217,476.504,0,2844.21,1244.74)"
       spreadMethod="pad"
       id="linearGradient856">
      <stop
         style="stop-opacity:1;stop-color:#fff200"
         offset="0"
         id="stop852" />
      <stop
         style="stop-opacity:1;stop-color:#f89c0e"
         offset="1"
         id="stop854" />
    </linearGradient>
    <clipPath
       clipPathUnits="userSpaceOnUse"
       id="clipPath866">
      <path
         d="m 2453.51,1770.82 c 0,-8.3 0.01,-517.56 0.01,-525.87 -8.1,0.01 -214.21,0.15 -219.2,0.15 -2.3,4.54 -126.88,249.31 -126.88,249.31 -0.9,1.75 -2.87,2.68 -4.79,2.22 -1.91,-0.46 -3.26,-2.15 -3.26,-4.12 0,0 0,-239.33 0,-247.56 -7.87,0.01 -149.45,0.14 -157.32,0.15 0.02,7.92 0.39,356.16 0.39,356.16 0,0 0,161.44 0,169.55 8.08,-0.01 202.93,-0.37 207.93,-0.38 2.3,-4.59 140.66,-279.82 140.66,-279.82 0.88,-1.77 2.85,-2.69 4.76,-2.23 1.94,0.45 3.28,2.17 3.28,4.13 0,0 0,270.06 0,278.31 7.85,0 146.56,0 154.42,0"
         id="path864" />
    </clipPath>
    <linearGradient
       x1="0"
       y1="0"
       x2="1"
       y2="0"
       gradientUnits="userSpaceOnUse"
       gradientTransform="matrix(0,537.217,551.46,0,1922.07,1244.74)"
       spreadMethod="pad"
       id="linearGradient872">
      <stop
         style="stop-opacity:1;stop-color:#fff200"
         offset="0"
         id="stop868" />
      <stop
         style="stop-opacity:1;stop-color:#f89c0e"
         offset="1"
         id="stop870" />
    </linearGradient>
    <clipPath
       clipPathUnits="userSpaceOnUse"
       id="clipPath882">
      <path
         d="m 1322.96,1435.65 c -20.87,81.65 3.29,165.07 30.32,211.71 39.02,67.6 122.01,115.47 211.42,121.95 140.88,10.41 245.18,-48.42 286.12,-161.39 v 0 c 16.19,-44.67 19.06,-111.64 6.93,-162.87 -34.77,-146.32 -165.98,-199.25 -267.79,-200.12 -100.45,-0.86 -230.65,48.59 -267,190.72"
         id="path880" />
    </clipPath>
    <linearGradient
       x1="0"
       y1="0"
       x2="1"
       y2="0"
       gradientUnits="userSpaceOnUse"
       gradientTransform="matrix(0,526.938,607.793,0,1282.08,1244.74)"
       spreadMethod="pad"
       id="linearGradient888">
      <stop
         style="stop-opacity:1;stop-color:#fff200"
         offset="0"
         id="stop884" />
      <stop
         style="stop-opacity:1;stop-color:#f89c0e"
         offset="1"
         id="stop886" />
    </linearGradient>
    <clipPath
       clipPathUnits="userSpaceOnUse"
       id="clipPath898">
      <path
         d="m 2768.02,1770.82 c 0,-8.3 0,-518.04 0,-526.34 -7.95,0 -174.75,0 -182.7,0 0,8.3 0,518.04 0,526.34 7.95,0 174.75,0 182.7,0"
         id="path896" />
    </clipPath>
    <linearGradient
       x1="0"
       y1="0"
       x2="1"
       y2="0"
       gradientUnits="userSpaceOnUse"
       gradientTransform="matrix(0,537.217,222.695,0,2565.32,1244.74)"
       spreadMethod="pad"
       id="linearGradient904">
      <stop
         style="stop-opacity:1;stop-color:#fff200"
         offset="0"
         id="stop900" />
      <stop
         style="stop-opacity:1;stop-color:#f89c0e"
         offset="1"
         id="stop902" />
    </linearGradient>
    <clipPath
       clipPathUnits="userSpaceOnUse"
       id="clipPath914">
      <path
         d="m 1606.25,1620.68 c -44.48,-6.7 -110.75,-59.08 -129.52,-116.57 -10.62,-32.54 -4.19,-61.69 18.6,-84.27 23.06,-22.94 52.85,-31.04 91.01,-24.78 50.43,8.31 112.91,69.56 121.61,119.16 0,0.01 0,0.01 0,0.01 5.31,30.72 -3.44,60.4 -24.01,81.41 -19.94,20.36 -48.26,29.49 -77.69,25.04"
         id="path912" />
    </clipPath>
    <linearGradient
       x1="0"
       y1="0"
       x2="1"
       y2="0"
       gradientUnits="userSpaceOnUse"
       gradientTransform="matrix(234.443,0,0,-276.328,1473.51,1645.13)"
       spreadMethod="pad"
       id="linearGradient922">
      <stop
         style="stop-opacity:1;stop-color:#fff64c"
         offset="0"
         id="stop916" />
      <stop
         style="stop-opacity:1;stop-color:#fff64c"
         offset="0.05658597"
         id="stop918" />
      <stop
         style="stop-opacity:1;stop-color:#cb6e1d"
         offset="1"
         id="stop920" />
    </linearGradient>
    <clipPath
       clipPathUnits="userSpaceOnUse"
       id="clipPath932">
      <path
         d="m 1070.54,1394.34 c 5.69,7.62 13.38,24.93 2.07,36.3 -14.02,13.97 -33.67,15.27 -52.69,16.53 l -17.42,1.51 c -85.473,10.9 -152.973,19.51 -162.094,123.14 -4.511,49.5 5.742,97.04 27.461,127.17 30.274,41.9 80.821,62.53 169.003,68.95 v 0 c 49.43,3.61 100.14,-2.37 147.56,-9.35 12.62,-1.87 34.12,-6.32 63.69,-13.18 -2.19,-7.83 -28.96,-103.46 -30.8,-110.02 -25.06,3.38 -172.58,21.91 -191.35,-7.05 -6.38,-9.54 -5,-26.93 -3.08,-41 4.66,-15.86 37.63,-20.11 79.39,-25.5 39.55,-5.12 84.4,-10.91 106.21,-26.83 25.94,-18.9 42.01,-45.74 47.78,-79.77 9.08,-53.31 -1.53,-101.17 -30.69,-138.42 -29.9,-38.23 -78.32,-62.47 -132.79,-66.52 -57.36,-4.21 -113.458,0.18 -167.735,4.43 l -3.692,0.28 c -21.972,1.72 -39.961,4.53 -65.859,8.67 4.453,17.66 21.289,84.02 30.898,119.13 23.731,-3.04 160.448,-19.03 184.138,11.53"
         id="path930" />
    </clipPath>
    <linearGradient
       x1="0"
       y1="0"
       x2="1"
       y2="0"
       gradientUnits="userSpaceOnUse"
       gradientTransform="matrix(0,515,469.453,0,815.894,1253.78)"
       spreadMethod="pad"
       id="linearGradient938">
      <stop
         style="stop-opacity:1;stop-color:#fff200"
         offset="0"
         id="stop934" />
      <stop
         style="stop-opacity:1;stop-color:#f89c0e"
         offset="1"
         id="stop936" />
    </linearGradient>
  </defs>
  <g
     inkscape:label="Ebene 1"
     inkscape:groupmode="layer"
     id="layer1"
     transform="translate(0.25437988,0.25437982)">
    <path
       d="m 258.17658,63.710395 c 0.11401,-0.373766 0.17382,-0.76155 0.17382,-1.153071 0,-0.346668 -0.0449,-0.693336 -0.13643,-1.033464 0,0 -5.48316,-19.089207 -7.77436,-25.912319 0.37844,-1.516561 6.67641,-24.234104 6.67641,-24.809707 0,-1.6361647 -0.47655,-3.2003786 -1.41097,-4.5963977 C 254.11094,3.822674 251.26471,2.1276415 247.69243,1.4315007 246.00207,1.1025862 235.52912,-0.19905682 228.15564,0.44662518 219.83278,1.176405 212.55087,4.5393731 206.97428,9.9702032 V 4.1272941 c 0,-2.1930769 -1.77914,-3.97220683 -3.97315,-3.97220683 h -56.35656 c -0.69614,0 -1.31659,0.22706332 -1.88565,0.54102733 -0.56533,-0.30461978 -1.19605,-0.49617541 -1.86229,-0.49710987 l -29.5715,-0.0560648 c -1.05496,-0.001869 -2.06786,0.41581552 -2.81446,1.16054587 -0.74661,0.7456648 -1.16615,1.7576383 -1.16615,2.8125954 V 7.173493 C 102.50365,2.061298 93.560341,-0.41957934 83.539655,0.31580705 77.182813,0.77927766 71.09135,2.9452566 65.967941,6.2951413 65.951253,6.2643099 65.945427,6.2297439 65.92776,6.1998396 65.38206,5.2691515 64.482217,4.5991736 63.433802,4.3459476 L 57.159193,2.8275201 C 53.988715,2.0921336 51.727427,1.628663 50.209931,1.4015996 45.171555,0.65219716 39.726707,0.01679358 34.046387,0.43447779 26.308107,0.99886567 16.643431,2.7275375 10.559534,11.163452 7.5785562,15.278628 5.9341702,20.892604 5.9341702,26.965381 c 0,0.057 0.00149,0.114928 0.00371,0.171929 l 0.1149288,2.648136 c 0.00292,0.06074 0.00688,0.121472 0.012449,0.182208 0.4595487,5.141161 2.2228871,9.357253 5.108646,12.685645 C 10.217247,46.121855 5.8638002,61.905093 5.8638002,61.905093 5.7663262,62.257369 5.72,62.612447 5.72,62.961919 c 0,1.649246 1.0333718,3.178887 2.6608457,3.747948 0.4402049,0.15511 2.3309993,0.716696 8.5014203,1.682886 -2.128693,3.527423 -10.2961523,17.059369 -10.2961523,17.059369 -0.6485788,1.074954 -0.9734759,2.282033 -0.9734759,3.489393 0,1.186337 0.3139631,2.372578 0.9414261,3.433704 0.1879016,0.32041 0.4182441,0.61793 0.6610065,0.907038 0.1292321,0.338725 0.2693902,0.669789 0.4530036,0.981138 1.2767885,2.175416 3.71459,3.533216 6.35469,3.533216 h 9.680001 c 2.745971,0 5.263757,-1.503849 6.494947,-3.825222 h 0.417963 c 1.219041,2.317729 3.754114,3.825222 6.501301,3.825222 h 9.679535 c 0.612977,0 1.218479,-0.09493 1.810899,-0.242016 0.588682,0.146423 1.191383,0.242016 1.802492,0.242016 h 8.449 C 26.530404,102.5698 3.7594081,106.6561 3.4097477,106.71918 c -1.9056499,0.34386 -3.26681407,2.0174 -3.26681407,3.92314 0,0.11756 0.005562,0.23725 0.0164222,0.3577 0.18286908,2.04843 1.90172447,3.63507 3.95884537,3.63507 H 259.95475 c 2.19402,0 3.97689,-1.81119 3.97689,-4.00595 0,-5.88832 -2.43415,-10.99649 -7.01934,-15.140072 1.17456,-1.2367 1.91088,-2.861653 1.91088,-4.659658 v -4.53164 c 0,-1.620184 -0.59896,-3.152537 -1.65485,-4.380734 -0.0393,-0.09671 -0.0449,-0.205119 -0.0878,-0.300415 0.99983,-1.198858 1.62027,-2.66309 1.62027,-4.263745 v -0.932547"
       style="fill:#ffffff;fill-opacity:1;fill-rule:nonzero;stroke:none;stroke-width:0.0934418"
       id="path594"
       sodipodi:nodetypes="csccsccccsssccccscccccccccscccccscccscccssccsscsccscssscssccsc" />
    <path
       d="m 258.17658,63.710395 c 0.11401,-0.373766 0.17382,-0.76155 0.17382,-1.153071 0,-0.346668 -0.0449,-0.693336 -0.13643,-1.033464 0,0 -5.48316,-19.089207 -7.77436,-25.912319 0.37844,-1.516561 6.67641,-24.234104 6.67641,-24.809707 0,-1.6361647 -0.47655,-3.2003786 -1.41097,-4.5963977 C 254.11094,3.822674 251.26471,2.1276415 247.69243,1.4315007 246.00207,1.1025862 235.52912,-0.19905682 228.15564,0.44662518 219.83278,1.176405 212.55087,4.5393731 206.97428,9.9702032 V 4.1272941 c 0,-2.1930769 -1.77914,-3.97220683 -3.97315,-3.97220683 h -56.35656 c -0.69614,0 -1.31659,0.22706332 -1.88565,0.54102733 -0.56533,-0.30461978 -1.19605,-0.49617541 -1.86229,-0.49710987 l -29.5715,-0.0560648 c -1.05496,-0.001869 -2.06786,0.41581552 -2.81446,1.16054587 -0.74661,0.7456648 -1.16615,1.7576383 -1.16615,2.8125954 V 7.173493 C 102.50365,2.061298 93.560341,-0.41957934 83.539655,0.31580705 77.182813,0.77927766 71.09135,2.9452566 65.967941,6.2951413 65.951253,6.2643099 65.945427,6.2297439 65.92776,6.1998396 65.38206,5.2691515 64.482217,4.5991736 63.433802,4.3459476 L 57.159193,2.8275201 C 53.988715,2.0921336 51.727427,1.628663 50.209931,1.4015996 45.171555,0.65219716 39.726707,0.01679358 34.046387,0.43447779 26.308107,0.99886567 16.643431,2.7275375 10.559534,11.163452 7.5785562,15.278628 5.9341702,20.892604 5.9341702,26.965381 c 0,0.057 0.00149,0.114928 0.00371,0.171929 l 0.1149288,2.648136 c 0.00292,0.06074 0.00688,0.121472 0.012449,0.182208 0.4595487,5.141161 2.2228871,9.357253 5.108646,12.685645 C 10.217247,46.121855 5.8638002,61.905093 5.8638002,61.905093 5.7663262,62.257369 5.72,62.612447 5.72,62.961919 c 0,1.649246 1.0333718,3.178887 2.6608457,3.747948 0.4402049,0.15511 2.3309993,0.716696 8.5014203,1.682886 -2.128693,3.527423 -10.2961523,17.059369 -10.2961523,17.059369 -0.6485788,1.074954 -0.9734759,2.282033 -0.9734759,3.489393 0,1.186337 0.3139631,2.372578 0.9414261,3.433704 0.1879016,0.32041 0.4182441,0.61793 0.6610065,0.907038 0.1292321,0.338725 0.2693902,0.669789 0.4530036,0.981138 1.2767885,2.175416 3.71459,3.533216 6.35469,3.533216 h 9.680001 c 2.745971,0 5.263757,-1.503849 6.494947,-3.825222 h 0.417963 c 1.219041,2.317729 3.754114,3.825222 6.501301,3.825222 h 9.679535 c 0.612977,0 1.218479,-0.09493 1.810899,-0.242016 0.588682,0.146423 1.191383,0.242016 1.802492,0.242016 h 8.449 C 26.530404,102.5698 3.7594081,106.6561 3.4097477,106.71918 c -1.9056499,0.34386 -3.26681407,2.0174 -3.26681407,3.92314 0,0.11756 0.005562,0.23725 0.0164222,0.3577 0.18286908,2.04843 1.90172447,3.63507 3.95884537,3.63507 H 259.95475 c 2.19402,0 3.97689,-1.81119 3.97689,-4.00595 0,-5.88832 -2.43415,-10.99649 -7.01934,-15.140072 1.17456,-1.2367 1.91088,-2.861653 1.91088,-4.659658 v -4.53164 c 0,-1.620184 -0.59896,-3.152537 -1.65485,-4.380734 -0.0393,-0.09671 -0.0449,-0.205119 -0.0878,-0.300415 0.99983,-1.198858 1.62027,-2.66309 1.62027,-4.263745 v -0.932547 z"
       style="fill:none;stroke:#231f20;stroke-width:0.794627;stroke-linecap:round;stroke-linejoin:round;stroke-miterlimit:4;stroke-dasharray:none;stroke-opacity:1"
       id="path596"
       sodipodi:nodetypes="csccsccccsssccccscccccccccscccccscccscccssccsscsccscssscssccscc" />
    <g
       id="g598"
       transform="matrix(0.0934417,0,0,-0.0934417,-61.838817,175.26016)">
      <g
         id="g600"
         clip-path="url(#clipPath604)">
        <path
           d="m 3443.8,691.316 c 0,0.122 0.04,0.239 0.04,0.356 0,79.726 -46.72,286.308 -766.72,246.308 C 1802.07,889.363 705.836,691.672 705.836,691.672 c 0,0 0.039,-0.234 0.039,-0.356 H 3443.8"
           style="fill:url(#linearGradient610);fill-opacity:1;fill-rule:nonzero;stroke:none"
           id="path612" />
      </g>
    </g>
    <path
       d="m 176.88605,105.95343 c -0.008,0.01 -0.0149,0.0205 -0.0225,0.0311 -0.002,0.002 -0.004,0.008 -0.006,0.0108 0.009,-0.0144 0.0188,-0.0274 0.028,-0.042"
       style="fill:#ffffff;fill-opacity:1;fill-rule:nonzero;stroke:none;stroke-width:0.0934418"
       id="path614" />
    <path
       d="m 176.88605,105.95343 c -0.008,0.01 -0.0149,0.0205 -0.0225,0.0311 -0.002,0.002 -0.004,0.008 -0.006,0.0108 0.009,-0.0144 0.0188,-0.0274 0.028,-0.042 z"
       style="fill:none;stroke:#231f20;stroke-width:0.41974;stroke-linecap:butt;stroke-linejoin:miter;stroke-miterlimit:4;stroke-dasharray:none;stroke-opacity:1"
       id="path616" />
    <path
       d="m 252.97283,83.621606 c 0,-0.433662 0,-3.245883 0,-3.6617 1.05308,-0.502717 1.75576,-1.48946 1.75576,-2.607022 v -4.413253 c 0,-1.652049 -1.49133,-2.992937 -3.32279,-2.992937 h -29.4089 c -1.00451,0 -1.9006,0.402733 -2.51172,1.035334 -0.60923,-0.632601 -1.51094,-1.035334 -2.51264,-1.035334 h -19.68069 c -3.30878,0 -5.75322,0.285932 -7.47068,0.872747 -1.57822,0.498043 -2.83782,1.321264 -3.73018,2.388369 v -0.268179 c 0,-1.652049 -1.4904,-2.992937 -3.32466,-2.992937 h -9.03394 c -1.83426,0 -3.32746,1.340888 -3.32746,2.992937 0,0 0,1.281088 0,2.560305 -2.18467,-1.957605 -5.21965,-4.682365 -5.21965,-4.682365 -0.62607,-0.562518 -1.46144,-0.870877 -2.35287,-0.870877 h -9.59366 c -1.83425,0 -3.32839,1.340888 -3.32839,2.992937 0,0 0,7.173522 0,11.870087 -2.84624,-4.730205 -8.00141,-13.302547 -8.00141,-13.302547 -0.57841,-0.963384 -1.70065,-1.560477 -2.92473,-1.560477 H 127.7759 c -1.22223,0 -2.34259,0.597093 -2.92286,1.555805 l -10.79906,17.892778 c -0.53823,0.888816 -0.54196,1.954614 -0.0167,2.845952 0.57747,0.976375 1.70344,1.582342 2.93687,1.582342 h 9.67963 c 1.31098,0 2.5005,-0.691748 3.03312,-1.760066 0,0 0.63353,-1.2695 1.02972,-2.065248 1.14093,0 4.13386,0 5.27105,0 0.37376,0.740243 1.05775,2.084965 1.05775,2.084965 0.5373,1.057759 1.72495,1.740349 3.02659,1.740349 h 9.67775 c 0.62794,0 1.22595,-0.170896 1.74549,-0.458144 0.51767,0.28724 1.1157,0.458144 1.74362,0.458144 h 9.03395 c 1.83426,0 3.32746,-1.343224 3.32746,-2.994153 0,0 0,-1.228289 0,-2.457233 2.1856,1.919197 5.24675,4.602751 5.24675,4.602751 0.6242,0.547474 1.44647,0.848635 2.32483,0.848635 h 9.5946 c 1.83426,0 3.32465,-1.343224 3.32465,-2.994153 v -0.352273 c 0.89984,1.106349 2.18841,1.946577 3.82551,2.468543 1.68849,0.585879 4.11331,0.877883 7.37535,0.877883 h 19.56017 c 1.03534,0 1.96228,-0.428148 2.57151,-1.098687 0.61297,0.670539 1.53711,1.098687 2.57339,1.098687 h 29.52945 c 1.83146,0 3.32465,-1.343224 3.32465,-2.994153 v -4.53164 c 0,-1.17419 -0.76528,-2.193264 -1.87818,-2.676172 z m -36.35444,-0.96002 h -15.22072 c 0,0 -0.4915,-0.01351 -0.97647,-0.02543 0,-0.868075 0,-1.720262 0,-2.55096 0.30089,-0.01219 0.64849,-0.02622 1.09888,-0.03083 h 15.21885 c 0.62046,0 1.20073,-0.156037 1.69877,-0.424228 v 3.520699 c -0.52328,-0.306585 -1.14746,-0.48917 -1.81931,-0.48917"
       style="fill:#231f20;fill-opacity:1;fill-rule:nonzero;stroke:none;stroke-width:0.0934418"
       id="path622" />
    <path
       d="m 118.30091,72.939631 c 0,-0.491503 -0.13548,-0.984873 -0.40368,-1.43059 -0.58027,-0.963384 -1.70064,-1.562347 -2.92565,-1.562347 h -9.97865 c -1.35957,0 -2.56964,0.729782 -3.0789,1.858555 0,0 -1.46423,3.238691 -2.562175,5.672847 C 98.241772,75.02058 96.788752,71.805249 96.788752,71.805249 96.277627,70.674605 95.06849,69.946694 93.707045,69.946694 H 83.658323 c -1.228756,0 -2.35286,0.598963 -2.929396,1.566085 -0.07663,0.125206 -0.137364,0.256027 -0.191557,0.386847 -0.677452,-0.443848 -1.462365,-0.813878 -2.347256,-1.094202 -1.711852,-0.576536 -4.078731,-0.85873 -7.243602,-0.85873 H 50.411766 c -1.836129,0 -3.329328,1.340888 -3.329328,2.992937 0,0 0,7.332372 0,12.070801 C 44.219385,80.248641 38.959553,71.507171 38.959553,71.507171 38.381146,70.545657 37.257977,69.946694 36.035761,69.946694 H 24.826214 c -1.224647,0 -2.343426,0.597093 -2.923698,1.555805 L 11.103739,89.395277 c -0.536542,0.888816 -0.543831,1.951716 -0.01458,2.845952 0.573077,0.976375 1.700918,1.582342 2.934629,1.582342 h 9.68 c 1.310333,0 2.502089,-0.691748 3.034986,-1.76231 0,0 0.631477,-1.267256 1.025709,-2.063004 1.14242,0 4.137413,0 5.27273,0 0.373766,0.740243 1.060563,2.084965 1.060563,2.084965 0.534487,1.05589 1.72213,1.740349 3.020037,1.740349 h 9.679617 c 0.658763,0 1.278282,-0.182578 1.809031,-0.491688 0.52701,0.310973 1.143727,0.491688 1.805293,0.491688 h 20.534748 c 3.178887,0 5.575667,-0.292004 7.318355,-0.892462 3.272329,-1.039164 5.217785,-3.418281 5.300015,-6.519051 0,-0.01351 0,-4.574628 0,-7.209963 l 7.65194,13.034369 c 0.5756,0.979364 1.701572,1.587107 2.942478,1.587107 h 10.38605 c 1.24278,0 2.37248,-0.611387 2.94528,-1.595143 l 10.42716,-17.89371 c 0.25323,-0.439178 0.38313,-0.916663 0.38313,-1.395087 z m -51.139719,7.173522 c 0,0.866204 0,1.701572 0,2.548433 -0.737253,0 -3.036854,0 -4.502021,0 0,-0.869287 0,-1.675689 0,-2.548433 1.480117,0 4.027337,0 4.502021,0"
       style="fill:#231f20;fill-opacity:1;fill-rule:nonzero;stroke:none;stroke-width:0.0934418"
       id="path624" />
    <path
       d="m 77.058537,68.910425 c 0.0056,9.34e-4 0.01112,0.0029 0.01694,0.0048 0.0037,0.0019 0.0085,0.0037 0.01404,0.0056 -0.0085,-0.0037 -0.0196,-0.0074 -0.03083,-0.01033"
       style="fill:#ffffff;fill-opacity:1;fill-rule:nonzero;stroke:none;stroke-width:0.0934418"
       id="path626" />
    <path
       d="m 77.058537,68.910425 c 0.0056,9.34e-4 0.01112,0.0029 0.01694,0.0048 0.0037,0.0019 0.0085,0.0037 0.01404,0.0056 -0.0085,-0.0037 -0.0196,-0.0074 -0.03083,-0.01033 z"
       style="fill:none;stroke:#231f20;stroke-width:0.746132;stroke-linecap:butt;stroke-linejoin:miter;stroke-miterlimit:4;stroke-dasharray:none;stroke-opacity:1"
       id="path628" />
    <path
       d="m 117.18521,71.050242 c 0,-0.492439 -0.13456,-0.984876 -0.40273,-1.431528 -0.58028,-0.963385 -1.70065,-1.561412 -2.92567,-1.561412 h -9.97958 c -1.35957,0 -2.56964,0.72978 -3.0789,1.858555 0,0 -1.463286,3.237755 -2.562165,5.671914 -1.109153,-2.457518 -2.562173,-5.671914 -2.562173,-5.671914 -0.511124,-1.130644 -1.721196,-1.858555 -3.082642,-1.858555 H 82.54263 c -1.227823,0 -2.351927,0.598963 -2.929397,1.565149 -0.07663,0.125206 -0.136411,0.256954 -0.191558,0.386849 -0.676518,-0.443847 -1.461429,-0.812944 -2.346321,-1.094204 -1.711851,-0.576535 -4.079665,-0.857794 -7.243602,-0.857794 H 49.296074 c -1.836132,0 -3.328395,1.340889 -3.328395,2.99294 0,0 0,7.331434 0,12.070238 -2.863988,-4.761228 -8.123821,-13.502701 -8.123821,-13.502701 -0.578406,-0.96245 -1.70064,-1.560477 -2.923792,-1.560477 H 23.71108 c -1.224553,0 -2.343331,0.596161 -2.923696,1.554872 L 9.9886983,87.50523 c -0.5366346,0.888819 -0.5439239,1.951717 -0.014571,2.845956 0.5730767,0.976466 1.7009187,1.582715 2.9347227,1.582715 h 9.679906 c 1.310427,0 2.502182,-0.691655 3.035081,-1.762218 0,0 0.631479,-1.267722 1.025614,-2.063473 1.142514,0 4.137414,0 5.272169,0 0.3747,0.740248 1.060564,2.085339 1.060564,2.085339 0.534486,1.055984 1.723064,1.740352 3.02097,1.740352 h 9.679525 c 0.658764,0 1.277347,-0.182498 1.809032,-0.492065 0.527009,0.310973 1.143726,0.492065 1.80436,0.492065 h 20.53568 c 3.178888,0 5.575667,-0.292005 7.318355,-0.892834 3.27233,-1.039168 5.217785,-3.418285 5.300015,-6.518963 0,-0.01351 0,-4.574344 0,-7.209401 l 7.651939,13.034183 c 0.574669,0.978896 1.70064,1.587015 2.942479,1.587015 h 10.386051 c 1.24278,0 2.37248,-0.61139 2.94528,-1.59505 L 116.8021,72.445325 c 0.25417,-0.439176 0.38311,-0.917597 0.38311,-1.395083 z m -50.905173,7.639792 c 0,0.866206 0,1.701572 0,2.549091 -0.737256,0 -3.036855,0 -4.502021,0 0,-0.869942 0,-1.676346 0,-2.549091 1.480117,0 4.027337,0 4.502021,0"
       style="fill:#ffffff;fill-opacity:1;fill-rule:nonzero;stroke:none;stroke-width:0.0934418"
       id="path630" />
    <path
       d="m 117.18521,71.050242 c 0,-0.492439 -0.13456,-0.984876 -0.40273,-1.431528 -0.58028,-0.963385 -1.70065,-1.561412 -2.92567,-1.561412 h -9.97958 c -1.35957,0 -2.56964,0.72978 -3.0789,1.858555 0,0 -1.463286,3.237755 -2.562165,5.671914 -1.109153,-2.457518 -2.562173,-5.671914 -2.562173,-5.671914 -0.511124,-1.130644 -1.721196,-1.858555 -3.082642,-1.858555 H 82.54263 c -1.227823,0 -2.351927,0.598963 -2.929397,1.565149 -0.07663,0.125206 -0.136411,0.256954 -0.191558,0.386849 -0.676518,-0.443847 -1.461429,-0.812944 -2.346321,-1.094204 -1.711851,-0.576535 -4.079665,-0.857794 -7.243602,-0.857794 H 49.296074 c -1.836132,0 -3.328395,1.340889 -3.328395,2.99294 0,0 0,7.331434 0,12.070238 -2.863988,-4.761228 -8.123821,-13.502701 -8.123821,-13.502701 -0.578406,-0.96245 -1.70064,-1.560477 -2.923792,-1.560477 H 23.71108 c -1.224553,0 -2.343331,0.596161 -2.923696,1.554872 L 9.9886983,87.50523 c -0.5366346,0.888819 -0.5439239,1.951717 -0.014571,2.845956 0.5730767,0.976466 1.7009187,1.582715 2.9347227,1.582715 h 9.679906 c 1.310427,0 2.502182,-0.691655 3.035081,-1.762218 0,0 0.631479,-1.267722 1.025614,-2.063473 1.142514,0 4.137414,0 5.272169,0 0.3747,0.740248 1.060564,2.085339 1.060564,2.085339 0.534486,1.055984 1.723064,1.740352 3.02097,1.740352 h 9.679525 c 0.658764,0 1.277347,-0.182498 1.809032,-0.492065 0.527009,0.310973 1.143726,0.492065 1.80436,0.492065 h 20.53568 c 3.178888,0 5.575667,-0.292005 7.318355,-0.892834 3.27233,-1.039168 5.217785,-3.418285 5.300015,-6.518963 0,-0.01351 0,-4.574344 0,-7.209401 l 7.651939,13.034183 c 0.574669,0.978896 1.70064,1.587015 2.942479,1.587015 h 10.386051 c 1.24278,0 2.37248,-0.61139 2.94528,-1.59505 L 116.8021,72.445325 c 0.25417,-0.439176 0.38311,-0.917597 0.38311,-1.395083 z m -50.905173,7.639792 c 0,0.866206 0,1.701572 0,2.549091 -0.737256,0 -3.036855,0 -4.502021,0 0,-0.869942 0,-1.676346 0,-2.549091 1.480117,0 4.027337,0 4.502021,0 z"
       style="fill:none;stroke:#231f20;stroke-width:0.746132;stroke-linecap:butt;stroke-linejoin:miter;stroke-miterlimit:4;stroke-dasharray:none;stroke-opacity:1"
       id="path632" />
    <path
       d="m 251.85806,81.731563 c 0,-0.43357 0,-3.245232 0,-3.661983 1.05309,-0.502715 1.75577,-1.488526 1.75577,-2.607023 v -4.412315 c 0,-1.652051 -1.49134,-2.99294 -3.32371,-2.99294 h -29.40798 c -1.0045,0 -1.9006,0.401801 -2.51172,1.035335 -0.61017,-0.633534 -1.51094,-1.035335 -2.51358,-1.035335 h -19.68069 c -3.30877,0 -5.75228,0.285 -7.46973,0.871813 -1.57917,0.498044 -2.83783,1.321265 -3.73019,2.388369 v -0.267242 c 0,-1.652051 -1.49134,-2.99294 -3.3256,-2.99294 h -9.03394 c -1.83425,0 -3.32652,1.340889 -3.32652,2.99294 0,0 0,1.281084 0,2.560302 -2.18467,-1.958537 -5.21965,-4.6833 -5.21965,-4.6833 -0.62607,-0.562518 -1.46236,-0.869942 -2.35287,-0.869942 H 152.124 c -1.83426,0 -3.32934,1.340889 -3.32934,2.99294 0,0 0,7.172584 0,11.869432 -2.8453,-4.730487 -8.00047,-13.301895 -8.00047,-13.301895 -0.5784,-0.964316 -1.70065,-1.560477 -2.92567,-1.560477 h -11.20739 c -1.22316,0 -2.34351,0.596161 -2.92379,1.554872 L 112.93921,87.50523 c -0.53915,0.888819 -0.54289,1.954615 -0.017,2.845956 0.57653,0.976466 1.7025,1.582715 2.93686,1.582715 h 9.67964 c 1.31005,0 2.50049,-0.691655 3.03311,-1.760442 0,0 0.63353,-1.269498 1.02973,-2.065249 1.13998,0 4.13293,0 5.27011,0 0.3747,0.740248 1.05869,2.085339 1.05869,2.085339 0.53636,1.057388 1.72494,1.740352 3.02565,1.740352 h 9.67775 c 0.62794,0 1.22595,-0.170817 1.74643,-0.458051 0.51674,0.287239 1.11476,0.458051 1.74363,0.458051 h 9.03394 c 1.83426,0 3.32651,-1.343224 3.32651,-2.994152 0,0 0,-1.228293 0,-2.457611 2.18654,1.919198 5.24677,4.603125 5.24677,4.603125 0.62419,0.5471 1.4474,0.848638 2.32482,0.848638 h 9.5946 c 1.83426,0 3.32559,-1.343224 3.32559,-2.994152 v -0.352275 c 0.89985,1.105974 2.18841,1.946297 3.8255,2.468169 1.68755,0.586253 4.11331,0.878258 7.37441,0.878258 h 19.56017 c 1.03533,0 1.96227,-0.42815 2.57243,-1.09906 0.61299,0.67091 1.53619,1.09906 2.57339,1.09906 h 29.52852 c 1.83239,0 3.32465,-1.343224 3.32465,-2.994152 V 84.4082 c 0,-1.174563 -0.76435,-2.193732 -1.87724,-2.676637 z M 215.7363,81.239125 h -15.21978 c 0,0 -0.49151,-0.01404 -0.9774,-0.02622 0,-0.86714 0,-1.719327 0,-2.550025 0.30182,-0.01298 0.64848,-0.02622 1.0998,-0.03083 h 15.21792 c 0.62139,0 1.20167,-0.156038 1.69971,-0.424225 v 3.519949 c -0.52421,-0.306492 -1.14747,-0.4887 -1.82025,-0.4887"
       style="fill:#ffffff;fill-opacity:1;fill-rule:nonzero;stroke:none;stroke-width:0.0934418"
       id="path634" />
    <path
       d="m 251.85806,81.731563 c 0,-0.43357 0,-3.245232 0,-3.661983 1.05309,-0.502715 1.75577,-1.488526 1.75577,-2.607023 v -4.412315 c 0,-1.652051 -1.49134,-2.99294 -3.32371,-2.99294 h -29.40798 c -1.0045,0 -1.9006,0.401801 -2.51172,1.035335 -0.61017,-0.633534 -1.51094,-1.035335 -2.51358,-1.035335 h -19.68069 c -3.30877,0 -5.75228,0.285 -7.46973,0.871813 -1.57917,0.498044 -2.83783,1.321265 -3.73019,2.388369 v -0.267242 c 0,-1.652051 -1.49134,-2.99294 -3.3256,-2.99294 h -9.03394 c -1.83425,0 -3.32652,1.340889 -3.32652,2.99294 0,0 0,1.281084 0,2.560302 -2.18467,-1.958537 -5.21965,-4.6833 -5.21965,-4.6833 -0.62607,-0.562518 -1.46236,-0.869942 -2.35287,-0.869942 H 152.124 c -1.83426,0 -3.32934,1.340889 -3.32934,2.99294 0,0 0,7.172584 0,11.869432 -2.8453,-4.730487 -8.00047,-13.301895 -8.00047,-13.301895 -0.5784,-0.964316 -1.70065,-1.560477 -2.92567,-1.560477 h -11.20739 c -1.22316,0 -2.34351,0.596161 -2.92379,1.554872 L 112.93921,87.50523 c -0.53915,0.888819 -0.54289,1.954615 -0.017,2.845956 0.57653,0.976466 1.7025,1.582715 2.93686,1.582715 h 9.67964 c 1.31005,0 2.50049,-0.691655 3.03311,-1.760442 0,0 0.63353,-1.269498 1.02973,-2.065249 1.13998,0 4.13293,0 5.27011,0 0.3747,0.740248 1.05869,2.085339 1.05869,2.085339 0.53636,1.057388 1.72494,1.740352 3.02565,1.740352 h 9.67775 c 0.62794,0 1.22595,-0.170817 1.74643,-0.458051 0.51674,0.287239 1.11476,0.458051 1.74363,0.458051 h 9.03394 c 1.83426,0 3.32651,-1.343224 3.32651,-2.994152 0,0 0,-1.228293 0,-2.457611 2.18654,1.919198 5.24677,4.603125 5.24677,4.603125 0.62419,0.5471 1.4474,0.848638 2.32482,0.848638 h 9.5946 c 1.83426,0 3.32559,-1.343224 3.32559,-2.994152 v -0.352275 c 0.89985,1.105974 2.18841,1.946297 3.8255,2.468169 1.68755,0.586253 4.11331,0.878258 7.37441,0.878258 h 19.56017 c 1.03533,0 1.96227,-0.42815 2.57243,-1.09906 0.61299,0.67091 1.53619,1.09906 2.57339,1.09906 h 29.52852 c 1.83239,0 3.32465,-1.343224 3.32465,-2.994152 V 84.4082 c 0,-1.174563 -0.76435,-2.193732 -1.87724,-2.676637 z M 215.7363,81.239125 h -15.21978 c 0,0 -0.49151,-0.01404 -0.9774,-0.02622 0,-0.86714 0,-1.719327 0,-2.550025 0.30182,-0.01298 0.64848,-0.02622 1.0998,-0.03083 h 15.21792 c 0.62139,0 1.20167,-0.156038 1.69971,-0.424225 v 3.519949 c -0.52421,-0.306492 -1.14747,-0.4887 -1.82025,-0.4887 z"
       style="fill:none;stroke:#231f20;stroke-width:0.746132;stroke-linecap:butt;stroke-linejoin:miter;stroke-miterlimit:4;stroke-dasharray:none;stroke-opacity:1"
       id="path636" />
    <g
       id="g638"
       transform="matrix(0.0934417,0,0,-0.0934417,-61.838817,175.26016)">
      <g
         id="g640"
         clip-path="url(#clipPath644)">
        <path
           d="m 977.008,1068.77 29.962,-61.21 h -60.001 z m -72.031,-144.981 20.41,40.938 h 102.383 l 20.78,-40.938 h 103.59 L 1036.97,1115.24 H 916.969 L 801.402,923.789 h 103.575"
           style="fill:url(#linearGradient650);fill-opacity:1;fill-rule:nonzero;stroke:none"
           id="path652" />
      </g>
    </g>
    <g
       id="g654"
       transform="matrix(0.0934417,0,0,-0.0934417,-61.838817,175.26016)">
      <g
         id="g656"
         clip-path="url(#clipPath660)">
        <path
           d="m 1288.79,1065.49 h 87.44 c 10.9,0 18.38,-0.63 22.36,-1.92 6.11,-2.08 9.32,-6.71 9.59,-13.93 v -57.257 c 0,-6.485 -1.37,-10.735 -4,-12.793 -3.21,-3.352 -12.64,-5.156 -28.34,-5.41 h -87.05 z m 121.77,-141.701 c 29.3,0 51.14,2.461 65.51,7.422 22.11,7.012 33.44,20.559 33.97,40.625 v 95.964 c -0.53,19.8 -11.86,33.17 -33.97,40.12 -14.37,4.88 -36.21,7.32 -65.51,7.32 H 1190.8 V 923.789 h 219.76"
           style="fill:url(#linearGradient666);fill-opacity:1;fill-rule:nonzero;stroke:none"
           id="path668" />
      </g>
    </g>
    <g
       id="g670"
       transform="matrix(0.0934417,0,0,-0.0934417,-61.838817,175.26016)">
      <g
         id="g672"
         clip-path="url(#clipPath676)">
        <path
           d="M 1658.98,923.789 1546.6,1115.24 h 107.58 l 60.41,-133.697 60.37,133.697 h 106.77 L 1770.15,923.789 h -111.17"
           style="fill:url(#linearGradient682);fill-opacity:1;fill-rule:nonzero;stroke:none"
           id="path684" />
      </g>
    </g>
    <g
       id="g686"
       transform="matrix(0.0934417,0,0,-0.0934417,-61.838817,175.26016)">
      <g
         id="g688"
         clip-path="url(#clipPath692)">
        <path
           d="m 2078.75,1068.77 30,-61.21 h -60 z m -72,-144.981 20.39,40.938 h 102.41 l 20.76,-40.938 H 2253.9 L 2138.73,1115.24 H 2018.75 L 1903.18,923.789 h 103.57"
           style="fill:url(#linearGradient698);fill-opacity:1;fill-rule:nonzero;stroke:none"
           id="path700" />
      </g>
    </g>
    <g
       id="g702"
       transform="matrix(0.0934417,0,0,-0.0934417,-61.838817,175.26016)">
      <g
         id="g704"
         clip-path="url(#clipPath708)">
        <path
           d="m 2291.26,923.789 v 191.451 h 102.68 l 116.63,-104.63 v 104.63 h 96.66 V 923.789 H 2504.58 L 2387.94,1026.11 V 923.789 h -96.68"
           style="fill:url(#linearGradient714);fill-opacity:1;fill-rule:nonzero;stroke:none"
           id="path716" />
      </g>
    </g>
    <g
       id="g718"
       transform="matrix(0.0934417,0,0,-0.0934417,-61.838817,175.26016)">
      <g
         id="g720"
         clip-path="url(#clipPath724)">
        <path
           d="m 2972.04,923.789 h -209.33 c -30.35,0 -52.56,2.461 -66.64,7.422 -21.57,6.75 -32.74,20.691 -33.54,41.797 v 95.032 c 0.51,19.97 11.43,33.26 32.74,39.92 14.08,4.85 36.55,7.28 67.44,7.28 h 210.62 v -49.11 h -163.4 c -18.69,-0.25 -30.57,-1.27 -35.62,-3.1 -7.21,-2.05 -10.94,-6.6 -11.21,-13.58 v -56.645 c 0.27,-9.067 3.59,-14.492 10.01,-16.289 3.74,-1.555 15.75,-2.336 36,-2.336 h 162.93 v -50.391"
           style="fill:url(#linearGradient730);fill-opacity:1;fill-rule:nonzero;stroke:none"
           id="path732" />
      </g>
    </g>
    <g
       id="g734"
       transform="matrix(0.0934417,0,0,-0.0934417,-61.838817,175.26016)">
      <g
         id="g736"
         clip-path="url(#clipPath740)">
        <path
           d="m 3027.1,923.789 v 191.451 h 314.69 v -47.22 h -217.36 v -25.19 h 198.55 v -44.732 h -198.55 v -25.813 h 218.67 v -48.496 h -316"
           style="fill:url(#linearGradient746);fill-opacity:1;fill-rule:nonzero;stroke:none"
           id="path748" />
      </g>
    </g>
    <path
       d="m 246.57954,36.590809 c 0,0 -0.19437,-0.589617 -0.27565,-0.813878 0.0812,-0.313963 1.52216,-6.103611 1.52216,-6.103611 0.93815,-3.788125 2.09403,-7.521123 3.20879,-11.130774 0.004,-0.0056 2.0118,-6.752099 2.0118,-6.752099 -0.002,-0.0092 -0.002,-0.0188 -0.002,-0.02437 0.66343,-3.2956873 -2.13796,-5.6606978 -6.1111,-6.434395 -1.78472,-0.3476023 -11.7615,-1.5118864 -18.43044,-0.9278758 -11.52135,1.0110383 -20.82628,7.7257618 -25.4993,18.0791008 0,-4.2245 -0.002,-18.3547537 -0.002,-18.3547537 h -0.58588 -28.8006 -0.228 -26.74301 c 0,0 0,4.8253297 0,7.5155157 -1.29792,-2.5835874 -3.75542,-7.471524 -3.75542,-7.471524 L 113.31832,4.11608 v 0.5896173 c 0,0 0,9.3908907 0,12.1997487 C 107.22806,7.9518627 96.635509,3.338646 83.831191,4.2786696 73.948796,4.9991044 64.725168,10.235577 59.840969,17.703439 60.271736,16.168191 62.50032,8.2078926 62.50032,8.2078926 L 56.225711,6.6894648 C 55.10908,6.4296973 51.692854,5.6401157 49.624986,5.3317571 44.824888,4.6178632 39.654757,4.0067544 34.337925,4.3973407 27.027138,4.929959 18.872949,6.4296973 13.782899,13.48735 11.284454,16.936283 9.9083386,21.727038 9.9083386,26.965381 l 0.1150354,2.648136 c 0.467207,5.225262 2.306796,9.124582 5.564454,11.982966 -0.171559,0.604567 -5.8929939,21.363575 -5.8929939,21.363575 0,0 1.6206499,0.568125 8.7072709,1.64831 7.082881,1.078318 16.529184,1.493199 22.128209,1.08019 6.902539,-0.512996 13.100527,-3.676933 17.000783,-8.672326 0.974599,-1.240906 1.790345,-2.820072 2.523861,-4.655266 6.849279,9.971165 18.518278,13.515408 26.646772,13.45 8.260247,-0.06916 19.85637,-3.868489 26.5879,-13.97234 -0.004,2.905102 -0.0148,13.954586 -0.0148,13.954586 h 5.87841 l 21.36732,0.01774 c 0,0 0,-2.916317 0,-4.915036 1.02225,2.002456 2.50144,4.913167 2.50144,4.913167 l 59.98209,0.03646 c 0,0 0,-12.505303 0,-16.77372 2.94715,6.400757 8.81996,13.493916 20.55157,16.025251 6.90814,1.481987 13.68734,0.301817 19.66761,-0.739123 l 1.4119,-0.243896 c -0.0486,-0.01298 6.52597,-1.039072 6.52597,-1.039072 l 3.2172,-0.517667 -1.70998,-6.351231 c -1.83987,-6.254989 -3.82831,-12.91271 -6.08867,-19.615283"
       style="fill:#294b67;fill-opacity:1;fill-rule:nonzero;stroke:none;stroke-width:0.0934418"
       id="path750" />
    <path
       d="m 113.64844,17.846404 c 0.66811,-0.205568 1.12224,-0.82135 1.12224,-1.519359 0,0 0,-9.5076966 0,-11.1971219 2.75278,0.00556 25.27504,0.04765 27.00184,0.051386 0.68399,1.3614449 3.31532,6.5979179 3.31532,6.5979179 0.33077,0.657831 1.07177,1.00263 1.78753,0.832566 0.7167,-0.170076 1.22222,-0.810139 1.22222,-1.54646 0,0 0,-3.9488458 0,-5.9260727 2.81259,0 51.30885,0 53.17954,0 0,2.6518745 0,16.7653087 0,16.7653087 0,0.748469 0.52421,1.39602 1.25586,1.553937 0.73165,0.156991 1.47451,-0.217726 1.78287,-0.899842 4.48987,-9.944069 13.3061,-16.1943822 24.18925,-17.1502916 6.34189,-0.5541087 16.18598,0.5541086 17.98847,0.9045159 2.07721,0.4046031 3.69935,1.2829548 4.45342,2.4070567 0.43264,0.6475509 0.5644,1.352103 0.40368,2.153832 0.009,-0.0458 0.0214,-0.06913 0.0365,-0.11493 l -2.03984,6.844604 c -1.11195,3.596572 -2.25941,7.314617 -3.20037,11.110218 L 244.6285,34.8042 c -0.0738,0.295276 -0.0541,0.641009 0.0431,0.929744 l 0.26536,0.786781 c 2.30148,6.824046 4.34038,13.672388 6.07092,19.555476 -0.008,-0.02251 0.73539,2.73504 1.2409,4.614153 -0.73352,0.118663 -1.47638,0.237354 -1.47638,0.237354 0.008,0 -3.25831,0.511123 -3.25831,0.511123 l -2.2482,0.356016 c -0.46535,0.07571 -0.87182,0.162579 -1.23344,0.283126 0.0729,-0.02437 0.11681,-0.09437 0.19345,-0.108386 l -1.41098,0.244823 c -5.84572,1.016645 -12.46139,2.167846 -19.0621,0.750335 -9.1872,-1.981896 -15.72998,-7.074469 -19.44243,-15.135686 -0.3121,-0.678386 -1.05495,-1.04748 -1.78286,-0.887695 -0.72978,0.159798 -1.25025,0.805467 -1.25025,1.552067 0,0 0,12.580055 0,15.185211 -2.8453,0 -28.02691,0 -28.02691,0 0,-0.03646 -26.7589,-0.05326 -26.7589,-0.05326 -0.006,0 -1.56514,0.0074 -2.63318,0.01218 -0.6027,-1.182038 -2.05853,-4.042286 -2.05853,-4.042286 -0.33358,-0.655028 -1.07271,-0.995155 -1.7866,-0.823224 -0.71483,0.17193 -1.21941,0.811074 -1.21941,1.545527 0,0 0,1.868833 0,3.324655 -2.72477,-0.0019 -19.776,-0.01668 -19.776,-0.01668 0,0 -2.59488,0 -4.28804,0 0.002,-2.497697 0.0122,-12.364206 0.0122,-12.364206 0,-0.700813 -0.45786,-1.318462 -1.12784,-1.521231 -0.67185,-0.203714 -1.39603,0.05608 -1.78287,0.640077 -6.45496,9.688035 -17.65207,13.199574 -25.278785,13.264049 -7.595874,0.06074 -18.786452,-3.244297 -25.323635,-12.761335 -0.332652,-0.483092 -0.903581,-0.744731 -1.485723,-0.680255 -0.582141,0.06448 -1.082054,0.444783 -1.299772,0.990484 -0.733518,1.832391 -1.483857,3.22654 -2.299604,4.263745 -3.629275,4.649658 -9.411447,7.589334 -15.866399,8.06869 -5.673779,0.417686 -15.03477,-0.04018 -21.772851,-1.066169 -3.637219,-0.55411 -5.759747,-0.961516 -6.980748,-1.225956 0.744635,-2.698596 5.456901,-19.780673 5.456901,-19.780673 0.03831,-0.141098 0.0584,-0.284997 0.0584,-0.427031 0,-0.454126 -0.19165,-0.896106 -0.538412,-1.202593 -2.960233,-2.594877 -4.604526,-6.169954 -5.029781,-10.928942 0,-0.03737 -0.11138,-2.575252 -0.11138,-2.575252 0.0019,-4.841214 1.270249,-9.297451 3.573492,-12.477271 4.714041,-6.5334443 12.443072,-7.9313306 19.385605,-8.4377858 5.139294,-0.377504 10.215979,0.2195806 14.935719,0.9213355 1.351169,0.2018339 3.52836,0.6494209 6.475511,1.3343482 v 0 c 0,0 2.801382,0.6765176 4.655266,1.1259718 -0.09063,0.3008812 -2.209896,7.9107753 -2.209896,7.9107753 -0.211184,0.754072 0.158846,1.552067 0.872745,1.875375 0.714829,0.324242 1.558609,0.07943 1.987506,-0.577471 C 65.713937,10.838465 74.44139,5.9682826 83.811725,5.2852226 96.05726,4.386314 106.02001,8.6257645 111.8676,17.221467 c 0.39244,0.576535 1.11476,0.830695 1.781,0.625124 z m 134.30003,17.658612 c 0.002,0 0.004,0.0074 0.004,0.0074 0,-9.32e-4 -0.004,-0.0085 -0.004,-0.0074 z m 0.004,0.0074 v 0 0"
       style="fill:#2a3e92;fill-opacity:1;fill-rule:nonzero;stroke:none;stroke-width:0.0934418"
       id="path752" />
    <g
       id="g754"
       transform="matrix(0.0934417,0,0,-0.0934417,-61.838817,175.26016)">
      <g
         id="g756"
         clip-path="url(#clipPath760)">
        <path
           d="m 3317.7,1266.32 c -19.33,65.76 -40.25,135.94 -64.31,207.25 -1.25,3.73 -4.45,6.44 -8.34,7.08 -3.89,0.65 -7.79,-0.92 -10.18,-4.04 -14.43,-18.88 -29.41,-34.65 -43.32,-45.63 -25.58,-20.13 -75.5,-27.83 -106.28,-6.71 -28.52,19.61 -30.22,46.52 -26.63,65.64 9.06,48.34 59.13,99.16 109.28,110.96 22.38,5.24 54.22,4.7 78.79,-27.8 2.46,-3.27 6.6,-4.82 10.61,-4 4,0.82 7.2,3.87 8.18,7.86 10.27,41.46 22.83,82.01 34.96,121.22 l 17.24,56.65 c 0.87,2.81 0.49,5.81 -0.97,8.35 -1.49,2.56 -3.95,4.34 -6.82,5 -71.3,16.53 -126.23,20.61 -195.93,14.5 -151.2,-13.21 -232.89,-120.59 -252.35,-230.96 -1.97,-11.21 -3.32,-22.46 -4.02,-33.63 -7.27,-116.17 54.8,-248.36 209.92,-281.78 63.99,-13.75 131.27,-2.03 190.65,8.3 l 50.76,8.19 c 3,0.48 5.79,2.26 7.42,4.86 1.64,2.57 2.21,5.74 1.34,8.69"
           style="fill:url(#linearGradient768);fill-opacity:1;fill-rule:nonzero;stroke:none"
           id="path770" />
      </g>
    </g>
    <g
       id="g772"
       transform="matrix(0.0934417,0,0,-0.0934417,-61.838817,175.26016)">
      <g
         id="g774"
         clip-path="url(#clipPath778)">
        <path
           d="m 2469.76,1774.86 c 0,5.87 -4.77,10.62 -10.63,10.62 h -162.91 c -5.24,0 -9.59,-3.77 -10.47,-8.77 -0.1,-0.6 -0.15,-1.23 -0.15,-1.85 0,0 0,-174.3 0,-237.74 -29.65,58.95 -121.74,242.11 -121.74,242.11 -1.79,3.59 -5.47,5.86 -9.47,5.86 l -214.8,0.39 c -2.82,0 -5.53,-1.12 -7.52,-3.1 -2.02,-2 -3.13,-4.69 -3.13,-7.52 v -173.81 l -0.25,-238.79 -0.14,-121.62 c -0.02,-2.84 1.11,-5.53 3.11,-7.53 1.99,-1.98 4.7,-3.12 7.52,-3.1 l 165.8,-0.15 c 2.83,0 5.52,1.09 7.52,3.1 1.56,1.54 2.59,3.53 2.96,5.67 0.1,0.6 0.16,1.23 0.16,1.85 0,0 0,146.52 0,207.05 43.44,-85.92 107.26,-210.3 108.02,-211.76 1.82,-3.55 5.45,-5.78 9.43,-5.78 l 226.06,-0.15 c 2.81,0 5.51,1.13 7.52,3.12 1.99,1.99 3.11,4.69 3.11,7.52 v 534.38"
           style="fill:url(#linearGradient786);fill-opacity:1;fill-rule:nonzero;stroke:none"
           id="path788" />
      </g>
    </g>
    <g
       id="g790"
       transform="matrix(0.0934417,0,0,-0.0934417,-61.838817,175.26016)">
      <g
         id="g792"
         clip-path="url(#clipPath796)">
        <path
           d="m 1565,1783.94 c -94.2,-6.84 -181.82,-57.62 -223.25,-129.38 -28.41,-49 -53.8,-136.79 -31.81,-222.79 16.29,-63.77 53.59,-116.47 107.89,-152.46 48.94,-32.45 110.6,-50.02 173.63,-49.47 115.65,0.97 247.74,66.77 282.13,211.58 1.19,4.98 2.23,10.06 3.14,15.25 9.13,51.76 5.22,112.62 -10.58,156.1 -43.36,119.7 -153.13,182.11 -301.15,171.17"
           style="fill:url(#linearGradient804);fill-opacity:1;fill-rule:nonzero;stroke:none"
           id="path806" />
      </g>
    </g>
    <g
       id="g808"
       transform="matrix(0.0934417,0,0,-0.0934417,-61.838817,175.26016)">
      <g
         id="g810"
         clip-path="url(#clipPath814)">
        <path
           d="m 2784.27,1774.86 c 0,5.85 -4.77,10.62 -10.64,10.62 h -191.2 c -2.81,0 -5.53,-1.12 -7.5,-3.1 -2.01,-2 -3.12,-4.71 -3.12,-7.52 v -534.85 c 0,-2.83 1.11,-5.53 3.12,-7.52 2,-1.99 4.69,-3.1 7.5,-3.13 l 191.21,0.03 c 5.86,0 10.63,4.74 10.63,10.62 v 534.85"
           style="fill:url(#linearGradient822);fill-opacity:1;fill-rule:nonzero;stroke:none"
           id="path824" />
      </g>
    </g>
    <g
       id="g826"
       transform="matrix(0.0934417,0,0,-0.0934417,-61.838817,175.26016)">
      <g
         id="g828"
         clip-path="url(#clipPath832)">
        <path
           d="m 1218.63,1546.82 c -24.9,18.15 -71.74,24.2 -113.07,29.54 -24.53,3.18 -61.35,7.96 -66.76,14.55 -1.58,12.52 -1.42,19.98 -0.68,24.22 0.45,2.5 1.08,3.94 1.62,4.76 8.6,13.22 106.39,11.04 180.47,0.06 5.37,-0.8 10.45,2.56 11.84,7.78 9.94,37.5 20.47,75.05 32.09,114.65 0.64,1.05 1.09,2.2 1.36,3.33 0.04,0.22 0.1,0.45 0.14,0.67 0.96,5.39 -2.54,10.74 -7.89,12.19 -0.18,0.04 -2.97,0.66 -2.97,0.66 -31.07,7.25 -53.55,11.9 -66.82,13.84 -48.3,7.13 -100,13.19 -150.8,9.5 v 0 c -65.64,-4.8 -138.336,-17.48 -179.976,-75.1 -24.121,-33.44 -35.137,-83.44 -30.215,-137.2 10.156,-115.57 90.234,-125.77 175.021,-136.57 l 18.36,-1.6 c 17.75,-1.17 33.06,-2.21 43.1,-12.21 3.64,-3.65 -0.49,-12.89 -3.4,-16.79 -13.1,-16.9 -111.753,-14.46 -173.862,-5.28 -5.313,0.77 -10.372,-2.52 -11.797,-7.71 -4.414,-15.98 -33.301,-126.43 -33.399,-129.83 -0.137,-5.33 3.672,-9.96 8.946,-10.8 l 2.714,-0.43 c 27.559,-4.39 45.762,-7.28 68.926,-9.12 l 3.399,-0.25 c 54.921,-4.28 111.683,-8.75 170.293,-4.41 58.65,4.35 110.94,30.64 143.44,72.18 31.77,40.62 43.4,92.52 33.59,150.06 -6.42,37.99 -24.49,68.05 -53.67,89.31"
           style="fill:url(#linearGradient840);fill-opacity:1;fill-rule:nonzero;stroke:none"
           id="path842" />
      </g>
    </g>
    <g
       id="g844"
       transform="matrix(0.0934417,0,0,-0.0934417,-61.838817,175.26016)">
      <g
         id="g846"
         clip-path="url(#clipPath850)">
        <path
           d="m 3069.29,1251.07 c -146.45,31.55 -205.08,156.47 -198.2,266.27 7.18,114.87 85.05,236.94 242.81,250.73 67.38,5.88 118.61,2.2 186.81,-13.25 -2.28,-7.5 -15.94,-52.31 -15.94,-52.31 -11.42,-36.96 -23.08,-75.21 -33.06,-114.37 -22.66,25.58 -53.64,35.64 -88.57,27.42 -55.28,-12.99 -110.45,-69.16 -120.51,-122.67 -6.23,-33.18 5.44,-61.82 32.85,-80.66 36.62,-25.15 93.63,-16.54 123.91,7.29 13.24,10.44 27.24,25.28 40.88,42.33 22.73,-67.9 43.02,-135.74 60.41,-194.9 -7.99,-1.29 -46.49,-7.5 -46.49,-7.5 -58.03,-10.09 -123.77,-21.54 -184.9,-8.38"
           style="fill:url(#linearGradient856);fill-opacity:1;fill-rule:nonzero;stroke:none"
           id="path858" />
      </g>
    </g>
    <g
       id="g860"
       transform="matrix(0.0934417,0,0,-0.0934417,-61.838817,175.26016)">
      <g
         id="g862"
         clip-path="url(#clipPath866)">
        <path
           d="m 2453.51,1770.82 c 0,-8.3 0.01,-517.56 0.01,-525.87 -8.1,0.01 -214.21,0.15 -219.2,0.15 -2.3,4.54 -126.88,249.31 -126.88,249.31 -0.9,1.75 -2.87,2.68 -4.79,2.22 -1.91,-0.46 -3.26,-2.15 -3.26,-4.12 0,0 0,-239.33 0,-247.56 -7.87,0.01 -149.45,0.14 -157.32,0.15 0.02,7.92 0.39,356.16 0.39,356.16 0,0 0,161.44 0,169.55 8.08,-0.01 202.93,-0.37 207.93,-0.38 2.3,-4.59 140.66,-279.82 140.66,-279.82 0.88,-1.77 2.85,-2.69 4.76,-2.23 1.94,0.45 3.28,2.17 3.28,4.13 0,0 0,270.06 0,278.31 7.85,0 146.56,0 154.42,0"
           style="fill:url(#linearGradient872);fill-opacity:1;fill-rule:nonzero;stroke:none"
           id="path874" />
      </g>
    </g>
    <g
       id="g876"
       transform="matrix(0.0934417,0,0,-0.0934417,-61.838817,175.26016)">
      <g
         id="g878"
         clip-path="url(#clipPath882)">
        <path
           d="m 1322.96,1435.65 c -20.87,81.65 3.29,165.07 30.32,211.71 39.02,67.6 122.01,115.47 211.42,121.95 140.88,10.41 245.18,-48.42 286.12,-161.39 v 0 c 16.19,-44.67 19.06,-111.64 6.93,-162.87 -34.77,-146.32 -165.98,-199.25 -267.79,-200.12 -100.45,-0.86 -230.65,48.59 -267,190.72"
           style="fill:url(#linearGradient888);fill-opacity:1;fill-rule:nonzero;stroke:none"
           id="path890" />
      </g>
    </g>
    <g
       id="g892"
       transform="matrix(0.0934417,0,0,-0.0934417,-61.838817,175.26016)">
      <g
         id="g894"
         clip-path="url(#clipPath898)">
        <path
           d="m 2768.02,1770.82 c 0,-8.3 0,-518.04 0,-526.34 -7.95,0 -174.75,0 -182.7,0 0,8.3 0,518.04 0,526.34 7.95,0 174.75,0 182.7,0"
           style="fill:url(#linearGradient904);fill-opacity:1;fill-rule:nonzero;stroke:none"
           id="path906" />
      </g>
    </g>
    <g
       id="g908"
       transform="matrix(0.0934417,0,0,-0.0934417,-61.838817,175.26016)">
      <g
         id="g910"
         clip-path="url(#clipPath914)">
        <path
           d="m 1606.25,1620.68 c -44.48,-6.7 -110.75,-59.08 -129.52,-116.57 -10.62,-32.54 -4.19,-61.69 18.6,-84.27 23.06,-22.94 52.85,-31.04 91.01,-24.78 50.43,8.31 112.91,69.56 121.61,119.16 0,0.01 0,0.01 0,0.01 5.31,30.72 -3.44,60.4 -24.01,81.41 -19.94,20.36 -48.26,29.49 -77.69,25.04"
           style="fill:url(#linearGradient922);fill-opacity:1;fill-rule:nonzero;stroke:none"
           id="path924" />
      </g>
    </g>
    <g
       id="g926"
       transform="matrix(0.0934417,0,0,-0.0934417,-61.838817,175.26016)">
      <g
         id="g928"
         clip-path="url(#clipPath932)">
        <path
           d="m 1070.54,1394.34 c 5.69,7.62 13.38,24.93 2.07,36.3 -14.02,13.97 -33.67,15.27 -52.69,16.53 l -17.42,1.51 c -85.473,10.9 -152.973,19.51 -162.094,123.14 -4.511,49.5 5.742,97.04 27.461,127.17 30.274,41.9 80.821,62.53 169.003,68.95 v 0 c 49.43,3.61 100.14,-2.37 147.56,-9.35 12.62,-1.87 34.12,-6.32 63.69,-13.18 -2.19,-7.83 -28.96,-103.46 -30.8,-110.02 -25.06,3.38 -172.58,21.91 -191.35,-7.05 -6.38,-9.54 -5,-26.93 -3.08,-41 4.66,-15.86 37.63,-20.11 79.39,-25.5 39.55,-5.12 84.4,-10.91 106.21,-26.83 25.94,-18.9 42.01,-45.74 47.78,-79.77 9.08,-53.31 -1.53,-101.17 -30.69,-138.42 -29.9,-38.23 -78.32,-62.47 -132.79,-66.52 -57.36,-4.21 -113.458,0.18 -167.735,4.43 l -3.692,0.28 c -21.972,1.72 -39.961,4.53 -65.859,8.67 4.453,17.66 21.289,84.02 30.898,119.13 23.731,-3.04 160.448,-19.03 184.138,11.53"
           style="fill:url(#linearGradient938);fill-opacity:1;fill-rule:nonzero;stroke:none"
           id="path940" />
      </g>
    </g>
    <path
       d="m 78.875979,41.60676 c -1.756706,-1.741755 -2.225782,-3.91147 -1.396019,-6.453083 1.577296,-4.83374 7.300601,-9.395563 10.986875,-9.950606 2.305207,-0.348538 4.513234,0.357882 6.060629,1.937979 1.604392,1.638967 2.285582,3.969403 1.86603,6.39515 -0.700812,4.003977 -6.141922,9.331088 -10.216915,10.001066 -3.095724,0.507388 -5.482227,-0.12428 -7.3006,-1.930506"
       style="fill:#2a3e92;fill-opacity:1;fill-rule:nonzero;stroke:none;stroke-width:0.0934418"
       id="path942" />
  </g>
</svg>
